<svg xmlns="http://www.w3.org/2000/svg" viewBox="0 0 24 24" aria-hidden="true" focusable="false">
  <path d="M20.902 7.09l-2.317-1.332-1.341-2.303H14.56L12.122 2 9.805 3.333H7.122L5.78 5.758 3.341 7.09v2.667L2 12.06l1.341 2.303v2.666l2.318 1.334L7 20.667h2.683L12 22l2.317-1.333H17l1.341-2.303 2.317-1.334v-2.666L22 12.06l-1.341-2.303V7.09h.243zm-6.097 6.062l.732 3.515-.488.363-2.927-1.818-3.049 1.697-.488-.363.732-3.516-2.56-2.181.121-.485 3.537-.243 1.341-3.273h.488l1.341 3.273 3.537.243.122.484-2.44 2.303z"></path>
</svg>