<svg xmlns="http://www.w3.org/2000/svg" xmlns:xlink="http://www.w3.org/1999/xlink" cache-id="ca29373808df4f9eaa432cd66b455877" viewBox="0 0 24 24" shape-rendering="geometricPrecision" text-rendering="geometricPrecision" height="48" width="48" aria-hidden="true" focusable="false">
    <style>
            .is-in-view #lp-collage-star-seller-badge-left {
                animation: lp-collage-star-seller-badge-left__to 2000ms linear 1 normal forwards
            }

            @keyframes lp-collage-star-seller-badge-left__to {
                0% {
                    transform: translate(3.4px, 12.4px)
                }
                50% {
                    transform: translate(3.4px, 12.4px)
                }
                75% {
                    transform: translate(3.2px, 12.4px)
                }
                100% {
                    transform: translate(3.2px, 12.4px)
                }
            }

            .is-in-view #e2oQ4aPtn8x2 {
                animation: e2oQ4aPtn8x2_c_o 2000ms linear 1 normal forwards
            }

            @keyframes e2oQ4aPtn8x2_c_o {
                0% {
                    opacity: 0
                }
                50% {
                    opacity: 0
                }
                75% {
                    opacity: 1
                }
                100% {
                    opacity: 1
                }
            }

            .is-in-view #lp-collage-star-seller-badge-right {
                animation: lp-collage-star-seller-badge-right__to 2000ms linear 1 normal forwards
            }

            @keyframes lp-collage-star-seller-badge-right__to {
                0% {
                    transform: translate(20.6px, 12.4px)
                }
                50% {
                    transform: translate(20.6px, 12.4px)
                }
                75% {
                    transform: translate(20.8px, 12.4px)
                }
                100% {
                    transform: translate(20.8px, 12.4px)
                }
            }

            .is-in-view #e2oQ4aPtn8x8 {
                animation: e2oQ4aPtn8x8_c_o 2000ms linear 1 normal forwards
            }

            @keyframes e2oQ4aPtn8x8_c_o {
                0% {
                    opacity: 0
                }
                50% {
                    opacity: 0
                }
                75% {
                    opacity: 1
                }
                100% {
                    opacity: 1
                }
            }

            .is-in-view #lp-collage-star-seller {
                animation: lp-collage-star-seller__tr 2000ms linear 1 normal forwards
            }

            @keyframes lp-collage-star-seller__tr {
                0% {
                    transform: translate(12px, 12px) rotate(-145deg);
                    animation-timing-function: cubic-bezier(0.42, 0, 0.58, 1)
                }
                50% {
                    transform: translate(12px, 12px) rotate(0deg)
                }
                100% {
                    transform: translate(12px, 12px) rotate(0deg)
                }
            }
    </style>
    <g id="lp-collage-star-seller-badge-left" transform="translate(3.4,12.4)">
        <g id="e2oQ4aPtn8x2" transform="translate(-3.4,-12.4)" opacity="0">
            <g id="e2oQ4aPtn8x3">
                <g id="e2oQ4aPtn8x4">
                    <polygon id="e2oQ4aPtn8x5" points="2.5,15.8 2,13.9 4.5,13.8 4.8,14.7" fill="rgb(97,77,116)" stroke="none" stroke-width="1" stroke-miterlimit="1"></polygon>
                </g>
                <g id="e2oQ4aPtn8x6">
                    <polygon id="e2oQ4aPtn8x7" points="4.8,10.1 4.5,11.1 2,10.9 2.5,9" fill="rgb(97,77,116)" stroke="none" stroke-width="1" stroke-miterlimit="1"></polygon>
                </g>
            </g>
        </g>
    </g>
    <g id="lp-collage-star-seller-badge-right" transform="translate(20.6,12.4)">
        <g id="e2oQ4aPtn8x8" transform="translate(-20.6,-12.4)" opacity="0">
            <g id="e2oQ4aPtn8x9">
                <polygon id="e2oQ4aPtn8x10" points="19.5,11.1 19.2,10.1 21.5,9 22,10.9" fill="rgb(97,77,116)" stroke="none" stroke-width="1" stroke-miterlimit="1"></polygon>
            </g>
            <g id="e2oQ4aPtn8x11">
                <polygon id="e2oQ4aPtn8x12" points="22,13.9 21.5,15.8 19.2,14.7 19.5,13.8" fill="rgb(97,77,116)" stroke="none" stroke-width="1" stroke-miterlimit="1"></polygon>
            </g>
        </g>
    </g>
    <g id="lp-collage-star-seller" transform="translate(12,12) rotate(-145)">
        <g id="e2oQ4aPtn8x13" transform="translate(-12,-12)">
            <g id="e2oQ4aPtn8x14">
                <path id="e2oQ4aPtn8x15" d="M17.6,8.8L16.1,7.9L15.2,6.4L13.5,6.4L12,5.5L10.5,6.4L8.7,6.4L7.9,7.9L6.4,8.8L6.4,10.5L5.5,12L6.4,13.5L6.4,15.2L7.9,16.1L8.8,17.6L10.5,17.6L12,18.5L13.5,17.6L15.2,17.6L16.1,16.1L17.6,15.2L17.6,13.5L18.5,12L17.6,10.5L17.6,8.8ZM13.7,12.7L14.2,14.9C14.1,15,14.1,15,13.9,15.1L12,14L10.1,15.2C10,15.1,10,15.1,9.8,15L10.3,12.8L8.6,11.3C8.7,11.1,8.7,11.1,8.7,11L11,10.8L11.9,8.7C12.1,8.7,12.1,8.7,12.2,8.7L13.1,10.8L15.4,11C15.5,11.2,15.5,11.2,15.5,11.3L13.7,12.7Z" fill="rgb(140,101,178)" stroke="none" stroke-width="1" stroke-miterlimit="1"></path>
            </g>
        </g>
    </g>
</svg>