<svg xmlns="http://www.w3.org/2000/svg" viewBox="0 0 24 24" aria-hidden="true" focusable="false"><path d="M5,7.6h5.7c0.4,1.2,1.5,2,2.8,2s2.4-0.8,2.8-2H19c0.6,0,1-0.4,1-1s-0.4-1-1-1h-2.7c-0.4-1.2-1.5-2-2.8-2s-2.4,0.8-2.8,2H5 c-0.6,0-1,0.4-1,1S4.4,7.6,5,7.6z M13.5,5.6c0.6,0,1,0.4,1,1s-0.4,1-1,1s-1-0.4-1-1S12.9,5.6,13.5,5.6z"></path><path d="M19,11.1h-7.7c-0.4-1.2-1.5-2-2.8-2s-2.4,0.8-2.8,2H5c-0.6,0-1,0.4-1,1c0,0.6,0.4,1,1,1h0.7c0.4,1.2,1.5,2,2.8,2 s2.4-0.8,2.8-2H19c0.6,0,1-0.4,1-1C20,11.5,19.6,11.1,19,11.1z M8.5,13.1c-0.6,0-1-0.4-1-1c0-0.6,0.4-1,1-1s1,0.4,1,1 C9.5,12.7,9.1,13.1,8.5,13.1z"></path><path d="M19,16.6h-1.2c-0.4-1.2-1.5-2-2.8-2s-2.4,0.8-2.8,2H5c-0.6,0-1,0.4-1,1s0.4,1,1,1h7.2c0.4,1.2,1.5,2,2.8,2s2.4-0.8,2.8-2 H19c0.6,0,1-0.4,1-1S19.6,16.6,19,16.6z M15,18.6c-0.6,0-1-0.4-1-1s0.4-1,1-1s1,0.4,1,1S15.6,18.6,15,18.6z"></path></svg>